<svg xmlns="http://www.w3.org/2000/svg" width="84.509" height="91" viewBox="0 0 84.509 91">
  <path id="Path_574" data-name="Path 574" d="M506.621,281.729l-40.529-35.663a1.625,1.625,0,0,0-2.148,0l-40.627,35.746a1.626,1.626,0,0,0,1.075,2.845h8.125v8.125a1.625,1.625,0,0,0,1.624,1.626h1.626v22.749h-1.626a1.626,1.626,0,0,0-1.624,1.626v8.125h-4.874a1.625,1.625,0,0,0-1.626,1.626v6.5a1.625,1.625,0,0,0,1.626,1.624h74.751a1.624,1.624,0,0,0,1.624-1.624v-6.5a1.625,1.625,0,0,0-1.624-1.626h-4.874v-8.125a1.628,1.628,0,0,0-1.626-1.626h-1.624V294.408h1.624a1.626,1.626,0,0,0,1.626-1.626v-8.125h8.133a1.624,1.624,0,0,0,.969-2.928Zm-57.853,2.928v6.5h-13v-6.5Zm29.25,0v8.125a1.625,1.625,0,0,0,1.624,1.626h1.626v22.749h-1.626a1.626,1.626,0,0,0-1.624,1.626v8.125h-26v-8.125a1.628,1.628,0,0,0-1.626-1.626h-1.624V294.408h1.624a1.626,1.626,0,0,0,1.626-1.626v-8.125Zm-39,9.751h6.5v22.749h-6.5Zm-3.25,26h13v6.5h-13Zm65,13.005h-71.5v-3.254h71.5Zm-19.5-6.5v-6.5h13v6.5Zm9.751-9.751h-6.5V294.408h6.5Zm3.25-26h-13v-6.5h13Zm-65.57-9.751,36.318-31.957,36.32,31.957Zm35.246-26.684-23.4,20.589a1.625,1.625,0,0,0,1.073,2.845h46.8a1.624,1.624,0,0,0,.969-2.928l-23.3-20.506A1.629,1.629,0,0,0,463.944,254.723Zm20.165,20.184H445.927l19.09-16.8Zm-14.943,35.752c0-1.794-1.862-3.25-4.149-3.25-4.573,0-8.3-2.917-8.3-6.5,0-3.023,2.65-5.563,6.223-6.286v-1.84a2.136,2.136,0,0,1,4.147,0v1.84c3.572.723,6.223,3.263,6.223,6.286a2.136,2.136,0,0,1-4.147,0c0-1.792-1.862-3.25-4.149-3.25s-4.147,1.459-4.147,3.25,1.862,3.25,4.147,3.25c4.575,0,8.3,2.915,8.3,6.5,0,3.021-2.65,5.561-6.223,6.284v1.84a2.136,2.136,0,0,1-4.147,0v-1.84c-3.572-.723-6.223-3.263-6.223-6.284a2.136,2.136,0,0,1,4.149,0c0,1.792,1.862,3.248,4.147,3.248S469.166,312.451,469.166,310.659Z" transform="translate(-422.767 -245.661)" fill="#fff"/>
</svg>
